Coordinates
version=1
nRows=24
nColumns=24
inDegrees=yes

Units are S.I. units (second, meters, Newtons, ...)
Angles are in degrees.

endheader
time	pelvis_tilt	pelvis_list	pelvis_rotation	pelvis_tx	pelvis_ty	pelvis_tz	hip_flexion_r	hip_adduction_r	hip_rotation_r	knee_angle_r	ankle_angle_r	subtalar_angle_r	mtp_angle_r	hip_flexion_l	hip_adduction_l	hip_rotation_l	knee_angle_l	ankle_angle_l	subtalar_angle_l	mtp_angle_l	lumbar_extension	lumbar_bending	lumbar_rotation
      0.52100000	     -0.00042545	     -0.56405968	      8.82153521	     -0.80138325	      0.89056603	      0.27933266	     25.03718686	     -0.01520287	     -9.22694500	     -1.84742227	      4.00278809	      0.07008490	      2.83988673	    -20.34657487	     -1.66746790	      4.04011051	     -7.24725961	     14.54720424	      2.22670027	     11.06577054	     -7.23214657	     -0.12204881	     -9.46105337
      0.52516667	     -0.02498726	     -0.66290289	      8.87720348	     -0.79528403	      0.88949271	      0.27987764	     25.17484031	      0.15287690	     -8.91478102	     -2.41776029	      3.83907806	     -0.00291500	      2.81006351	    -20.34148726	     -1.88521081	      3.90578250	     -8.01767228	     14.65269881	      2.51423946	     11.14674988	     -7.19599460	      0.00776589	     -9.51562910
      0.52933333	     -0.01989018	     -0.78599255	      8.91086931	     -0.78911306	      0.88847807	      0.28045197	     25.27516359	      0.36342990	     -8.59915952	     -3.03591196	      3.64458645	     -0.10685014	      2.81222156	    -20.35467082	     -2.12317378	      3.76211471	     -8.82686912	     14.78336883	      2.73643795	     11.24924833	     -7.17548165	      0.19126389	     -9.54601912
      0.53350000	     -0.01538535	     -0.91667412	      8.94108318	     -0.78289754	      0.88749370	      0.28105360	     25.38251211	      0.58740664	     -8.32330029	     -3.71992424	      3.35623811	     -0.31290922	      2.83645311	    -20.33447622	     -2.37737241	      3.53020822	     -9.69980727	     14.82779267	      3.09247688	     11.40798880	     -7.14519529	      0.36821374	     -9.56248027
      0.53766667	      0.02014665	     -1.06694927	      8.97045861	     -0.77662770	      0.88657059	      0.28165349	     25.45197005	      0.83947717	     -8.08900685	     -4.43830658	      3.01884899	     -0.56130179	      2.87972230	    -20.34334640	     -2.65605542	      3.31635410	    -10.59201499	     14.85509580	      3.39420368	     11.60488847	     -7.14304869	      0.58429586	     -9.55938172
      0.54183333	      0.04993515	     -1.21493839	      8.98397054	     -0.77030943	      0.88567831	      0.28229247	     25.53104131	      1.09917595	     -7.85853382	     -5.20159488	      2.60990270	     -0.88968799	      2.94487945	    -20.32397307	     -2.92941828	      3.07332702	    -11.52435104	     14.81962071	      3.72286635	     11.86232450	     -7.12239920	      0.78547274	     -9.53575101
      0.54600000	      0.09584341	     -1.38063970	      8.99021819	     -0.76393909	      0.88483408	      0.28294904	     25.59516485	      1.38483091	     -7.66788156	     -5.99791469	      2.15110951	     -1.26528444	      3.03964943	    -20.30770084	     -3.22379560	      2.82051867	    -12.49263589	     14.74657271	      4.04894207	     12.20934479	     -7.13440719	      1.00919768	     -9.49285939
      0.55016667	      0.17426756	     -1.54107347	      8.99038129	     -0.75754528	      0.88406395	      0.28362673	     25.63044410	      1.67567205	     -7.48690111	     -6.83528742	      1.65810078	     -1.72811555	      3.21020853	    -20.31236296	     -3.52030500	      2.54441170	    -13.48845505	     14.62538248	      4.39460494	     12.80609235	     -7.18984973	      1.21738961	     -9.44045791
      0.55433333	      0.22355776	     -1.72675724	      8.97244709	     -0.75105522	      0.88330104	      0.28428163	     25.69437448	      1.98599179	     -7.39326499	     -7.67928447	      1.11854328	     -2.05551807	      4.70966360	    -20.27229477	     -3.82489751	      2.27654232	    -14.50433466	     14.34937565	      4.50865252	     18.01121396	     -7.15209763	      1.49511587	     -9.38224988
      0.55850000	      0.23599627	     -1.89292698	      8.95445433	     -0.74455739	      0.88255232	      0.28493538	     25.79579883	      2.27297010	     -7.27488804	     -8.54215667	      0.53902676	     -2.48555093	      4.69528164	    -20.18798264	     -4.08967364	      2.13067847	    -15.53682243	     14.05761102	      4.52252499	     18.06464549	     -7.06685692	      1.73825605	     -9.29499411
      0.56266667	      0.29206184	     -2.06756407	      8.91869317	     -0.73806446	      0.88187821	      0.28567962	     25.85734387	      2.59234439	     -7.11910402	     -9.42379889	     -0.04746854	     -3.06657082	      4.70395078	    -20.10098174	     -4.38357119	      1.86512392	    -16.67219825	     13.81331470	      4.75672428	     18.24226707	     -7.07812827	      1.95729523	     -9.18361797
      0.56683333	      0.30264646	     -2.26092653	      8.88445778	     -0.73148444	      0.88122150	      0.28637600	     25.96830499	      2.91043057	     -7.05612551	    -10.32389259	     -0.62512731	     -3.46896217	      4.71636378	    -19.96701826	     -4.67872889	      1.67391729	    -17.78651826	     13.38844780	      4.81118402	     18.40159432	     -6.99498044	      2.23088147	     -9.07388187
      0.57100000	      0.34287475	     -2.42870941	      8.83261142	     -0.72495543	      0.88062919	      0.28713128	     26.05554299	      3.22001786	     -6.94164917	    -11.24649358	     -1.19445440	     -4.03406784	      4.75679367	    -19.80781738	     -4.95620810	      1.41587230	    -19.02531720	     13.04194287	      4.96591267	     18.72386633	     -6.96220957	      2.45209514	     -8.92844481
      0.57516667	      0.35542576	     -2.61270937	      8.77936753	     -0.71837280	      0.88006830	      0.28788544	     26.17445643	      3.53598410	     -6.87311949	    -12.18649812	     -1.72563170	     -4.50666084	      4.80871985	    -19.60118177	     -5.24443755	      1.19044156	    -20.28023539	     12.56312323	      5.04378376	     19.12754971	     -6.88388903	      2.70208757	     -8.77855245
      0.57933333	      0.35585101	     -2.79126495	      8.72225231	     -0.71177761	      0.87956241	      0.28864272	     26.30788726	      3.84067323	     -6.82616391	    -13.14353324	     -2.18940205	     -4.89959081	      4.85635322	    -19.35140298	     -5.52228357	      0.98617542	    -21.57832630	     11.99354093	      5.06872356	     19.52352205	     -6.78488292	      2.93895457	     -8.62821894
      0.58350000	      0.41012613	     -3.00239466	      8.69444388	     -0.70514288	      0.87921002	      0.28936941	     26.36726786	      4.17151228	     -6.85862552	    -14.07355645	     -2.63356807	     -5.28288102	      5.48139440	    -19.12694487	     -5.86317596	      0.77437861	    -22.89563345	     11.28771183	      5.08522314	     24.76009684	     -6.75534006	      3.24035362	     -8.50698257
      0.58766667	      0.38565990	     -3.15952591	      8.59619722	     -0.69855623	      0.87877302	      0.29019296	     26.55269386	      4.45887497	     -6.78576246	    -15.11510635	     -2.87406985	     -5.56339761	      5.47107757	    -18.78674951	     -6.10286038	      0.56363174	    -24.29821243	     10.60847217	      5.02426788	     24.81354285	     -6.63329468	      3.44610426	     -8.33583973
      0.59183333	      0.38949345	     -3.34878146	      8.53714055	     -0.69193701	      0.87846393	      0.29096550	     26.68401390	      4.76399385	     -6.78538552	    -16.11624654	     -3.06180045	     -5.79921519	      5.46320363	    -18.44150650	     -6.39708453	      0.39793997	    -25.72986925	      9.82135157	      4.97512445	     24.87227357	     -6.53586033	      3.71925768	     -8.19425296
      0.59600000	      0.36455621	     -3.51402117	      8.47377230	     -0.68540389	      0.87814755	      0.29179262	     26.85634824	      5.04312343	     -6.76802646	    -17.14167122	     -3.20469148	     -6.05095910	      5.44981509	    -17.98822780	     -6.67776249	      0.19304995	    -27.29684628	      9.09930827	      5.00174614	     25.00110670	     -6.42632600	      3.91141213	     -8.00228838
      0.60016667	      0.35858882	     -3.69793895	      8.41438791	     -0.67884997	      0.87792518	      0.29260775	     26.99579745	      5.33936539	     -6.77165567	    -18.15355588	     -3.23463219	     -6.22867376	      5.43306480	    -17.52718141	     -6.98563798	     -0.00205562	    -28.88803189	      8.25225410	      4.99488694	     25.15742581	     -6.33368108	      4.15212866	     -7.83278719
      0.60433333	      0.35381661	     -3.88346664	      8.36195599	     -0.67230669	      0.87776005	      0.29342724	     27.12559805	      5.63233180	     -6.79446147	    -19.15955854	     -3.16728763	     -6.34636807	      5.41251072	    -17.02695493	     -7.30516996	     -0.18773137	    -30.52232758	      7.36063465	      4.97681189	     25.33007304	     -6.23776476	      4.38996290	     -7.66688237
      0.60850000	      0.36038829	     -4.07073754	      8.31671100	     -0.66578924	      0.87767119	      0.29424418	     27.22807885	      5.92500503	     -6.82807674	    -20.14333455	     -3.01309730	     -6.41525594	      5.38589190	    -16.49227469	     -7.63742777	     -0.36750667	    -32.20843306	      6.40874558	      4.94016102	     25.50809247	     -6.15831917	      4.63252414	     -7.50749168
      0.61266667	      0.36730071	     -4.26038024	      8.27839201	     -0.65930714	      0.87762369	      0.29504273	     27.32549957	      6.21164147	     -6.89000671	    -21.12681577	     -2.76570111	     -6.44806498	      5.34190984	    -15.91726426	     -7.97780014	     -0.52328588	    -33.93882768	      5.43135413	      4.89635219	     25.72461068	     -6.08679224	      4.89424692	     -7.34565231
      0.61683333	      0.38770256	     -4.45990069	      8.25048453	     -0.65285122	      0.87766052	      0.29585128	     27.36977037	      6.51129085	     -6.94933355	    -22.03000876	     -2.46941228	     -6.42734578	      5.29544667	    -15.30883814	     -8.34533211	     -0.68540806	    -35.71191838	      4.35470792	      4.80160158	     25.90023740	     -6.02231146	      5.13775680	     -7.19982934
